<svg id="图层_1" data-name="图层 1" xmlns="http://www.w3.org/2000/svg" viewBox="0 0 12.23 13.1"><defs><style>.cls-1{fill:#007bff;}</style></defs><title>垃圾</title><path class="cls-1" d="M5.07,5.55a.47.47,0,0,1,.47-.47h0A.47.47,0,0,1,6,5.55v5a.47.47,0,1,1-.93,0Zm3,0a.47.47,0,1,1,.93,0v5a.47.47,0,0,1-.93,0Zm4.57-3H9.58V1.27A.87.87,0,0,0,8.64.45H5.44a.87.87,0,0,0-.93.82V2.55H1.36a.47.47,0,0,0,0,.93h1v9.15a.93.93,0,0,0,.93.91h7.54a.93.93,0,0,0,.93-.91V3.49h.9A.47.47,0,0,0,13.12,3h0a.47.47,0,0,0-.47-.47ZM5.44,1.39h3.2V2.56H5.44Zm4.88,11.23-6.56,0a.48.48,0,0,1-.49-.53V3.94c0-.54.46-.45.46-.45h6.53s.55,0,.55.45,0,7.77,0,8.22S10.32,12.62,10.32,12.62Z" transform="translate(-0.89 -0.45)"/></svg>