<?xml version="1.0" standalone="no"?><!DOCTYPE svg PUBLIC "-//W3C//DTD SVG 1.1//EN" "http://www.w3.org/Graphics/SVG/1.1/DTD/svg11.dtd"><svg t="1530781959257" class="icon" style="" viewBox="0 0 1024 1024" version="1.1" xmlns="http://www.w3.org/2000/svg" p-id="8178" xmlns:xlink="http://www.w3.org/1999/xlink" width="14" height="14"><defs><style type="text/css"></style></defs><path d="M370.95424 406.22592a34.10432 34.10432 0 0 1 34.17088-34.176c18.92352 0 34.17088 15.50848 34.17088 34.176v364.7744c0 18.9184-15.50848 34.17088-34.17088 34.17088-18.92864 0-34.17088-15.50848-34.17088-34.17088V406.22592z m219.61216 0c0-18.92864 15.50848-34.176 34.176-34.176 18.92352 0 34.17088 15.50848 34.17088 34.176v364.7744c0 18.9184-15.50848 34.17088-34.17088 34.17088-18.66752 0-34.176-15.50848-34.176-34.17088V406.22592z m334.57152-219.17184h-224.71168v-94.3104c0-33.3824-29.96736-59.66848-68.34176-59.66848H397.77792c-38.37952 0-68.34688 26.28608-68.34688 59.66848v94.04928H99.20512c-18.92864 0-34.17088 15.24736-34.17088 34.17088s15.24736 34.17088 34.17088 34.17088h72.02304v669.57824c0 36.80256 30.75584 66.76992 68.34688 66.76992h551.23456c37.59104 0 68.34688-29.96736 68.34688-66.76992V255.39584h65.98144a34.10432 34.10432 0 0 0 34.17088-34.17088 34.0992 34.0992 0 0 0-34.17088-34.17088z m-527.36-85.376h234.31168v85.37088H397.77792V101.67808z m356.75648 821.72416s-442.1376 1.58208-479.72864 1.58208-35.48672-38.64064-35.48672-38.64064V288.256c0-39.42912 33.3824-32.85504 33.3824-32.85504h477.62944s40.2176-2.36544 40.2176 32.85504c0 35.2256 0.52736 568.37632 0.52736 601.4976 0 32.85504-36.54144 33.64864-36.54144 33.64864z" fill="#333333" p-id="8179"></path></svg>