<svg id="图层_1" data-name="图层 1" xmlns="http://www.w3.org/2000/svg" viewBox="0 0 27.45 21"><defs><style>.cls-1{fill:#007bff;}.cls-2{fill:none;stroke:#007bff;stroke-miterlimit:10;stroke-width:1.5px;}</style></defs><title>喇叭</title><path class="cls-1" d="M2.42,4H8A0,0,0,0,1,8,4V18a0,0,0,0,1,0,0H2.42A2.42,2.42,0,0,1,0,15.58V6.42A2.42,2.42,0,0,1,2.42,4Z"/><polygon class="cls-1" points="8 4 16 0 16 21 8 18 8 4"/><rect class="cls-1" x="16" width="1" height="21"/><path class="cls-2" d="M24,27.88c1.14-.56,3-3,3-5.88s-1.86-5.32-3-5.88" transform="translate(-5 -11)"/><path class="cls-2" d="M27.3,31c1.94-.95,4.4-4.06,4.4-9s-2.46-8.05-4.4-9" transform="translate(-5 -11)"/><path class="cls-1" d="M21,11" transform="translate(-5 -11)"/></svg>